<svg width="102" height="107" xmlns="http://www.w3.org/2000/svg"><g transform="translate(1 1)" stroke="#225CFF" stroke-width="2" fill="none" fill-rule="evenodd"><path d="M0 102.5V2.5A2.5 2.5 0 0 1 2.5 0h95a2.5 2.5 0 0 1 2.5 2.5v100a2.5 2.5 0 0 1-2.5 2.5h-95a2.5 2.5 0 0 1-2.5-2.5zM0 15h100M7.5 7.5h5m5 0h5m5 0h5"/><path d="M80 72.5v10H20v-10h-2.5V55H20v-5c0-5.522 4.478-10 10-10h40c5.522 0 10 4.478 10 10v5h2.5v17.5H80z" fill="#C3CFFF"/><path d="M44.86 61.027a7.512 7.512 0 0 1-8.828 8.83c-2.936-.558-5.336-2.958-5.893-5.893a7.513 7.513 0 0 1 8.828-8.83c2.936.557 5.336 2.958 5.893 5.893zM70 62.497a7.5 7.5 0 0 1-7.5 7.5 7.5 7.5 0 0 1-7.5-7.5c0-4.144 3.357-7.5 7.5-7.5s7.5 3.356 7.5 7.5z" fill="#FFF"/><path d="M50 40V27.5"/></g></svg>