<svg width="156" height="106" xmlns="http://www.w3.org/2000/svg" xmlns:xlink="http://www.w3.org/1999/xlink"><defs><path id="a" d="M0 105L154.446709 105 154.446709 0 0 0z"/></defs><g transform="translate(1 1)" fill="none" fill-rule="evenodd"><path d="M108.466 86.1H5.46A4.48 4.48 0 0 1 .98 81.62V68.18h111.963v13.44a4.48 4.48 0 0 1-4.478 4.48" fill="#FFF"/><path d="M112.944 5.461a4.479 4.479 0 0 0-4.478-4.48H5.46A4.48 4.48 0 0 0 .98 5.462V68.18h111.963V5.46z" fill="#FFF"/><path d="M.98 68.18v13.439a4.48 4.48 0 0 0 4.48 4.48h71.656" stroke="#225CFF" stroke-width="2"/><path d="M112.944 27.86V5.463A4.479 4.479 0 0 0 108.466.98H5.46A4.48 4.48 0 0 0 .98 5.46V68.18h76.136" stroke="#225CFF" stroke-width="2"/><mask id="b" fill="#fff"><use xlink:href="#a"/></mask><path stroke="#225CFF" stroke-width="2" mask="url(#b)" d="M45.7662025 104.018692L68.1587975 104.018692 68.1587975 86.0990187 45.7662025 86.0990187z"/><path d="M77.116 104.019H36.81" stroke="#225CFF" stroke-width="2" mask="url(#b)"/><path d="M132.657 104.019H85.835a2.601 2.601 0 0 1-2.6-2.602V36.368a2.601 2.601 0 0 1 2.6-2.602h46.822c1.436 0 2.6 1.165 2.6 2.602v65.05a2.601 2.601 0 0 1-2.6 2.6" fill="#FFF" mask="url(#b)"/><path fill="#C3CFFF" mask="url(#b)" d="M83.235 93.6109346L135.258101 93.6109346 135.258101 44.1745794 83.235 44.1745794z"/><path d="M150.865 104.019h-20.81a2.601 2.601 0 0 1-2.6-2.602V57.183a2.602 2.602 0 0 1 2.6-2.602h20.81c1.436 0 2.6 1.166 2.6 2.602v44.234a2.601 2.601 0 0 1-2.6 2.602" fill="#FFF" mask="url(#b)"/><path d="M150.865 104.019h-20.81a2.601 2.601 0 0 1-2.6-2.602V57.183a2.602 2.602 0 0 1 2.6-2.602h20.81c1.436 0 2.6 1.166 2.6 2.602v44.234a2.601 2.601 0 0 1-2.6 2.602z" stroke="#225CFF" stroke-width="2" mask="url(#b)"/><path stroke="#225CFF" stroke-width="2" mask="url(#b)" d="M127.454146 93.6109346L153.465696 93.6109346 153.465696 64.9900935 127.454146 64.9900935z"/><path d="M135.258 49.378v-13.01a2.6 2.6 0 0 0-2.6-2.602H85.834a2.6 2.6 0 0 0-2.6 2.602v65.049a2.602 2.602 0 0 0 2.6 2.602h36.417m16.907-44.234h2.602m-19.51 33.826H83.236m0-49.437h52.023m-27.312-5.204h2.6" stroke="#225CFF" stroke-width="2" mask="url(#b)"/></g></svg>