<svg width="128" height="107" xmlns="http://www.w3.org/2000/svg"><g transform="translate(1 1)" stroke="#225CFF" stroke-width="2" fill="none" fill-rule="evenodd"><path d="M15.603 38.53c-1.37-2.714-2.106-5.58-2.106-8.544 0-17.25 26.958-29.984 57.658-29.984 30.7 0 54.715 12.938 54.715 30.19 0 17.25-24.015 32.935-54.715 32.935-5.816 0-15.055-1.345-19.15-2.744"/><path d="M.027 43.915l62.921-13.723 2.736 2.744-38.3 35.68v35.68c-5.316-.302-23.311-8.292-27.357-21.957-.06-.203 0-38.424 0-38.424z" fill="#C3CFFF"/><path d="M62.948 43.915l-10.943 16.36v38.531c5.472 1.773 13.293 2.745 19.15 2.745 30.701 0 54.715-12.94 54.715-30.19V30.19M27.384 68.617C11.664 63.86 2.07 54.341.027 43.915"/></g></svg>