<svg width="104" height="105" xmlns="http://www.w3.org/2000/svg"><g transform="translate(1)" stroke="#225CFF" stroke-width="2" fill="none" fill-rule="evenodd"><path d="M71.484 67.926c-2.397 20.41-9.284 35.151-17.407 35.151-10.113 0-18.312-22.855-18.312-51.048C35.765 23.837 43.964.98 54.077.98c7.96 0 14.732 14.155 17.257 33.927m.69 6.93c.239 3.293.364 6.702.364 10.192 0 3.492-.125 6.9-.364 10.193"/><path d="M31.13 45.331C14.517 57.526 5.098 70.67 9.139 77.554c5.057 8.616 29.276 4.175 54.094-9.924 24.82-14.096 40.84-32.508 35.782-41.124-4.017-6.845-20.128-5.45-39.025 2.48m-6.126 2.759a145.955 145.955 0 0 0-8.943 4.683 145.35 145.35 0 0 0-8.792 5.41"/><path d="M31.324 58.871C14.59 46.636 5.08 33.42 9.139 26.505c5.056-8.616 29.275-4.175 54.094 9.924 24.818 14.096 40.838 32.508 35.782 41.126-4.084 6.956-20.658 5.4-39.953-2.878m-4.985-2.26a145.405 145.405 0 0 1-9.156-4.786 145.23 145.23 0 0 1-8.79-5.406"/><path d="M31.307 81.295c0 3.47-2.858 6.282-6.384 6.282-3.526 0-6.384-2.812-6.384-6.282s2.858-6.281 6.384-6.281c3.526 0 6.384 2.812 6.384 6.28zm70.292-19.07c0 3.468-2.858 6.28-6.384 6.28-3.526 0-6.384-2.812-6.384-6.28 0-3.47 2.858-6.281 6.384-6.281 3.526 0 6.384 2.812 6.384 6.28zM49.046 11.443c0 3.47-2.858 6.282-6.384 6.282-3.526 0-6.384-2.811-6.384-6.282 0-3.469 2.858-6.28 6.384-6.28 3.526 0 6.384 2.811 6.384 6.28z" fill="#C3CFFF"/><path d="M84.433 9.749c0 2.783-2.296 5.04-5.126 5.04-2.831 0-5.126-2.257-5.126-5.042 0-2.783 2.295-5.041 5.126-5.041 2.83 0 5.126 2.258 5.126 5.043zm-1.717 84.417c0 2.798-2.306 5.066-5.15 5.066-2.845 0-5.15-2.268-5.15-5.066 0-2.799 2.305-5.067 5.15-5.067 2.844 0 5.15 2.27 5.15 5.067zM10.453 51.03c0 2.841-2.341 5.141-5.227 5.141C2.338 56.171 0 53.87 0 51.031c0-2.841 2.34-5.141 5.228-5.141 2.885 0 5.225 2.301 5.225 5.14z"/></g></svg>