<svg width="113" height="106" xmlns="http://www.w3.org/2000/svg"><g transform="translate(0 1)" stroke="#225CFF" stroke-width="2" fill="none" fill-rule="evenodd"><path d="M57.1 95.882h-5.136m17.12 0h-5.136m-3.424 3.424v5.135m0-17.119v5.136M4.246 27.725L.822 31.149m11.983-11.983L9.382 22.59m0 5.135l3.424 3.424M.822 19.166l3.425 3.424M62.15 64.87l23.615 23.612 5.776-5.774c2.047-2.047 1.755-2.711.64-3.826-1.222-1.221-4.739-.85-5.732-4.243-.546-1.864.6-4.394 2.497-6.228 1.835-1.897 4.368-3.043 6.231-2.497 3.394.994 3.022 4.51 4.243 5.731 1.115 1.115 1.78 1.407 3.828-.64l7.927-7.923-7.612-7.61c-2.048-2.047-1.755-2.712-.64-3.826 1.219-1.22 4.736-.846 5.73-4.239.545-1.863-.602-4.395-2.501-6.23-1.836-1.899-4.368-3.045-6.232-2.5-3.394.992-3.02 4.508-4.24 5.728-1.114 1.114-1.78 1.406-3.827-.64l-3.071-3.07"/><path d="M52.578.395l-27.4 27.4 6.219 6.216c2.204 2.204 2.92 1.889 4.12.69 1.314-1.315.913-5.1 4.565-6.17 2.007-.587 4.732.646 6.707 2.69 2.043 1.974 3.277 4.699 2.69 6.704-1.069 3.651-4.855 3.252-6.169 4.566-1.2 1.199-1.514 1.916.69 4.12l8.532 8.53 8.191-8.192c2.205-2.203 2.921-1.888 4.12-.69 1.313 1.314.913 5.099 4.565 6.167 2.005.588 4.732-.647 6.707-2.691 2.043-1.974 3.277-4.7 2.689-6.705-1.069-3.652-4.855-3.251-6.168-4.565-1.199-1.198-1.514-1.914.689-4.118l6.607-6.608L52.578.395z" fill="#C3CFFF"/><path d="M29.676 100.139l27.399-27.4-6.218-6.216c-2.204-2.204-2.92-1.889-4.12-.69-1.314 1.316-.913 5.101-4.565 6.17-2.007.588-4.731-.645-6.708-2.69-2.043-1.973-3.276-4.698-2.69-6.704 1.07-3.651 4.856-3.251 6.17-4.565 1.199-1.2 1.515-1.917-.69-4.12l-8.533-8.53-8.191 8.191c-2.204 2.203-2.92 1.888-4.12.69-1.312-1.313-.913-5.099-4.564-6.167-2.006-.588-4.732.647-6.707 2.691-2.043 1.975-3.277 4.7-2.69 6.705 1.07 3.652 4.856 3.251 6.169 4.565 1.198 1.198 1.514 1.914-.69 4.118l-6.606 6.608 27.354 27.344z"/></g></svg>