<svg width="329" height="278" xmlns="http://www.w3.org/2000/svg"><g transform="translate(2.023 2.027)" fill="none" fill-rule="evenodd"><path d="M293.596 70.058V47.833c0-22.963-22.994-47.816-52.415-47.816-29.418 0-52.412 24.853-52.412 47.816v10.55" stroke="#C3CFFF" stroke-width="4"/><path d="M278.066 73.949v7.919c0 11.252-4.58 23.39-15.556 30.724m-42.681-89.23c0 21.83 44.027 50.586 66.002 50.586M219.83 42.82c-9.335 3.899-19.412 14.18-19.412 27.238V81.73c.086 13.694 10.151 27.377 25.959 34.43" stroke="#225CFF" stroke-width="4"/><path d="M254.772 128.425c0 4.298-3.478 7.782-7.765 7.782h-3.883c-4.29 0-7.765-3.484-7.765-7.782 0-4.297 3.476-7.782 7.765-7.782h3.883c4.287 0 7.765 3.485 7.765 7.782z" stroke="#C3CFFF" stroke-width="4"/><path d="M250.888 128.425h4.009c21.373 0 38.631-14.885 38.631-35.239m7.833-34.802h-7.764v35.02h7.764c4.288 0 7.765-3.482 7.765-7.783V66.166c0-4.298-3.477-7.782-7.765-7.782zm-120.357 0h7.765v35.02h-7.765c-4.29 0-7.765-3.482-7.765-7.783V66.166c0-4.298 3.476-7.782 7.765-7.782z" stroke="#C3CFFF" stroke-width="4"/><path d="M215.947 108.97v31.128" stroke="#225CFF" stroke-width="4"/><path stroke="#225CFF" stroke-width="4" d="M215.946879 136.20769L243.123801 163.445299 231.476548 175.11856 204.298108 147.880951z"/><path stroke="#225CFF" stroke-width="4" d="M270.300571 136.20769L243.125167 163.445299 254.770901 175.11856 281.949341 147.880951z"/><path d="M204.298 147.88l-22.066 4.916a23.316 23.316 0 0 0-17.048 15.408l-3.592 10.807m120.357-31.13l22.066 4.915a23.316 23.316 0 0 1 17.048 15.408l3.593 10.807" stroke="#225CFF" stroke-width="4"/><path stroke="#225CFF" stroke-width="4" d="M135.55457 150.071343L135.55457 74.159386 0.0131070232 74.159386 0.0131070232 233.975473 59.8117492 233.975473"/><path stroke="#225CFF" stroke-width="4" d="M0.0123478489 74.1601469L135.553811 74.1601469 135.553811 50.1866686 0.0123478489 50.1866686z"/><path d="M119.609 62.173h-7.973m-7.973 0H95.69m-7.972 0h-7.975m39.866 35.958H99.676m0 31.964H67.785" stroke="#225CFF" stroke-width="4"/><path d="M99.676 146.077H67.785m-7.973-15.982h-23.92" stroke="#C3CFFF" stroke-width="4"/><path d="M119.609 114.113H67.785" stroke="#225CFF" stroke-width="4"/><path d="M59.812 146.077H15.96" stroke="#C3CFFF" stroke-width="4"/><path d="M59.772 114.113H35.853" stroke="#225CFF" stroke-width="4"/><path d="M119.609 162.058H99.676" stroke="#C3CFFF" stroke-width="4"/><path d="M99.676 194.022H67.785m-7.973 0h-23.92" stroke="#225CFF" stroke-width="4"/><path d="M119.609 178.04H67.785" stroke="#C3CFFF" stroke-width="4"/><path d="M59.812 210.003H15.96m43.813-31.964H35.853" stroke="#225CFF" stroke-width="4"/><path fill="#F0F4FF" d="M71.7710222 273.929495L247.176729 273.929495 247.176729 210.002756 71.7710222 210.002756z"/><path stroke="#225CFF" stroke-width="4" d="M71.7710222 273.929495L247.176729 273.929495 247.176729 210.002756 71.7710222 210.002756z"/><path d="M235.217 225.984h-7.973m-7.973 0h-7.973m-7.972 0h-7.973m-7.973 0h-7.973m-7.974 0h-7.973m-7.973 0h-7.973m-7.972 0h-7.973m-7.973 0h-7.974m-7.973 0h-7.973m-7.973 0H83.73m143.514 15.982h-7.973m-7.973 0h-7.972m-7.973 0h-7.973m-7.973 0h-7.974m-7.973 0h-7.973m-7.973 0h-7.972m-7.973 0h-7.973m-7.974 0h-7.973m-7.973 0h-7.973m143.514 15.982h-7.973m-7.973 0h-7.973m-7.972 0H115.62m-7.972 0h-7.973m-7.973 0H83.73" stroke="#C3CFFF" stroke-width="4"/><path d="M135.555 158.063v11.986a7.97 7.97 0 0 0 2.336 5.65 7.939 7.939 0 0 0 5.636 2.34h63.785c2.04 0 4.08.78 5.637 2.342a7.968 7.968 0 0 1 2.337 5.65 7.97 7.97 0 0 1-2.337 5.65 7.937 7.937 0 0 1-5.637 2.341h-39.865a7.94 7.94 0 0 0-5.637 2.34 7.973 7.973 0 0 0-2.335 5.65v7.991" stroke="#225CFF" stroke-width="4"/></g></svg>