<svg width="300" height="284" xmlns="http://www.w3.org/2000/svg"><g transform="translate(2.5 2)" fill="none" fill-rule="evenodd"><path stroke="#225CFF" stroke-width="4" d="M280.420897 38.6199333L280.420897 0.000155555556 -0.000155789474 0.000155555556 -0.000155789474 280.000156 212.733486 280.000156"/><path d="M232.073 140.869v114.993a24.05 24.05 0 0 0 7.082 17.067 24.115 24.115 0 0 0 17.092 7.07c6.185 0 12.376-2.356 17.091-7.07a24.044 24.044 0 0 0 7.083-17.067V140.869h-48.348z" fill="#F0F4FF"/><path d="M285.256 82.07a9.651 9.651 0 0 0 6.837-2.829 9.622 9.622 0 0 0 2.833-6.827c0-2.47-.944-4.94-2.833-6.827a9.651 9.651 0 0 0-6.837-2.828h-58.018a9.651 9.651 0 0 0-6.837 2.828 9.622 9.622 0 0 0-2.833 6.827c0 2.47.944 4.94 2.833 6.827a9.651 9.651 0 0 0 6.837 2.828h4.834v173.793a24.047 24.047 0 0 0 7.083 17.066A24.11 24.11 0 0 0 256.246 280c6.187 0 12.376-2.357 17.093-7.072a24.045 24.045 0 0 0 7.081-17.066V82.07h4.836z" stroke="#225CFF" stroke-width="4" stroke-linejoin="round"/><path d="M232.073 140h48.348" stroke="#225CFF" stroke-width="4"/><path stroke="#C3CFFF" stroke-width="4" d="M210.557575 111.170578L189.681785 111.170578 182.724227 83.2732444 161.84688 83.2732444 154.889322 114.644133 134.011975 114.644133 127.054417 127.1928 106.178627 127.1928 99.2195116 107.697022 78.34528 107.697022 71.3861642 130.666356 50.5103747 130.666356 43.5512589 155.763689 22.6754695 155.763689"/><path d="M26.155 249.2v-54.379m18.093 54.38v-36.254M62.34 249.2v-56m18.092 56v-94.316M98.525 249.2v-78.4m18.092 78.4v-60.422m18.092 60.422v-40.673m18.092 40.673v-72.504m18.093 72.504V134.4m18.092 114.8v-84.147m18.092 84.147V146.484" stroke="#225CFF" stroke-width="4"/></g></svg>