<svg width="362" height="298" xmlns="http://www.w3.org/2000/svg"><g transform="translate(2.066 2.243)" fill="none" fill-rule="evenodd"><path d="M10.233 273.06v-10.217c0-3.761 3.05-6.81 6.812-6.81h13.622m30.654 0h13.623a6.81 6.81 0 0 1 6.812 6.811v10.215m-44.275 0H6.827a6.814 6.814 0 0 0-6.812 6.812v13.624h91.958v-13.624a6.812 6.812 0 0 0-6.812-6.811H68.133" stroke="#C3CFFF" stroke-width="4"/><path stroke="#C3CFFF" stroke-width="4" d="M61.3212621 191.321268L61.3212621 208.351159 81.7555012 228.787028 71.5391969 239.003333 71.5391969 256.031594"/><path d="M20.45 256.032v-34.058l-10.217-10.216v-30.654c0-26.819 23.163-40.868 44.277-40.868 8.871 0 21.61 4.641 27.246 10.216L71.54 160.67l20.434 20.434v10.09L81.756 201.54 71.54 191.322H54.51c-6.497 0-13.624-3.722-13.624-10.218v-3.406" stroke="#C3CFFF" stroke-width="4"/><path d="M77.788 221.38c3.253-5.623 9.333-9.407 16.295-9.407 10.39 0 18.812 8.423 18.812 18.814 0 6.543-3.341 12.306-8.41 15.678" stroke="#225CFF" stroke-width="4"/><path d="M87.195 246.465h25.083a3.134 3.134 0 0 1 3.135 3.135v6.27a3.135 3.135 0 0 1-3.135 3.136H96.6m-3.136 34.49h25.084v-6.273a6.27 6.27 0 0 0-6.272-6.269H99.736m9.406-21.948v21.948" stroke="#225CFF" stroke-width="4"/><path d="M242.346 146.756c0 26.052-21.116 47.167-47.167 47.167-26.05 0-47.165-21.115-47.165-47.167 0-26.05 21.115-47.166 47.165-47.166s47.167 21.115 47.167 47.166" fill="#F0F4FF"/><path d="M169.135 186.062c1.31-13.255 12.472-23.584 26.045-23.584 13.572 0 24.735 10.329 26.043 23.584m-15.562-49.787c0 5.79-4.694 10.482-10.482 10.482-5.788 0-10.48-4.692-10.48-10.482 0-5.788 4.692-10.482 10.48-10.482s10.482 4.694 10.482 10.482z" stroke="#225CFF" stroke-width="4"/><path d="M242.346 146.756c0 26.052-21.116 47.167-47.167 47.167-26.05 0-47.165-21.115-47.165-47.167 0-26.05 21.115-47.166 47.165-47.166s47.167 21.115 47.167 47.166z" stroke="#225CFF" stroke-width="4"/><path d="M121.81 293.496h146.739c8.65 0 15.722-7.073 15.722-15.723V15.74c0-8.65-7.073-15.723-15.722-15.723h-146.74c-8.649 0-15.722 7.073-15.722 15.723m20.963 36.684H284.27M128.798 241.089H284.27m-104.812 26.204H210.9m-104.813-71.04v-65.218" stroke="#225CFF" stroke-width="4"/><path stroke="#225CFF" stroke-width="4" d="M347.15849 120.553387L347.15849 125.793605 337.026969 125.793605"/><path d="M331.437 125.793H273.79" stroke="#225CFF" stroke-width="4"/><path stroke="#225CFF" stroke-width="4" d="M268.548871 125.793278L263.308653 125.793278 263.308653 117.292192"/><path d="M263.309 111.702V95.98" stroke="#225CFF" stroke-width="4"/><path stroke="#225CFF" stroke-width="4" d="M263.308979 90.7389307L263.308979 83.8682785 275.070936 83.8682785"/><path d="M283.922 83.869h52.756" stroke="#225CFF" stroke-width="4"/><path stroke="#225CFF" stroke-width="4" d="M341.918436 83.8686046L347.158653 83.8686046 347.158653 94.0001263"/><path d="M347.158 99.59v15.724" stroke="#225CFF" stroke-width="4"/><path stroke="#225CFF" stroke-width="4" d="M43.2001208 115.313822L127.050121 115.313822 127.050121 31.4621915 43.2001208 31.4621915z"/><path d="M111.328 73.387H58.921M85.125 94.35H58.922m0-41.926h52.407m220.108-15.722h-31.443m0-20.963H352.4" stroke="#C3CFFF" stroke-width="4"/><path stroke="#C3CFFF" stroke-width="4" d="M305.233816 241.088822L357.640882 241.088822 357.640882 188.681757 305.233816 188.681757z"/><path d="M326.197 214.886h10.482" stroke="#C3CFFF" stroke-width="4"/></g></svg>