<svg width="77" height="74" xmlns="http://www.w3.org/2000/svg"><g transform="translate(2 2)" stroke="#A9DEE6" stroke-width="3" fill="none" fill-rule="evenodd" stroke-linejoin="round"><path d="M17.086 61.464c0 4.715-3.824 8.536-8.543 8.536C3.825 70 0 66.18 0 61.464c0-4.716 3.825-8.537 8.543-8.537 4.719 0 8.543 3.821 8.543 8.537zm51.258 0c0 4.715-3.824 8.536-8.543 8.536-4.717 0-8.543-3.82-8.543-8.536 0-4.716 3.826-8.537 8.543-8.537 4.72 0 8.543 3.821 8.543 8.537zM42.715 40.976c0 4.715-3.824 8.536-8.543 8.536-4.717 0-8.543-3.82-8.543-8.536 0-4.716 3.826-8.537 8.543-8.537 4.72 0 8.543 3.821 8.543 8.537zM13.67 66.586h41.006M6.835 52.927l20.503-17.073M61.51 52.927L41.006 35.854m-16.898-1.712L16.84 17.799c-2.295-5.16 1.484-10.97 7.133-10.97a7.805 7.805 0 0 1 7.134 4.633l7.815 17.571"/><path d="M20.503 6.83V3.414A3.417 3.417 0 0 1 23.92 0h42.716v15.366H32.463"/><path d="M66.6357558 3.41480488L73.4702274 5.12212195 73.4702274 10.2440732 66.6357558 11.9513902"/><path d="M22.212 13.659h3.417"/></g></svg>