<svg width="55" height="73" xmlns="http://www.w3.org/2000/svg"><g transform="translate(2 2)" stroke="#225CFF" stroke-width="3" fill="none" fill-rule="evenodd" stroke-linejoin="round"><path d="M19.5942029 57L25.6231884 57 31.6521739 57"/><path d="M21.101 48a5.154 5.154 0 0 0 3.639 1.5h1.766a5.162 5.162 0 0 0 3.639-1.498V48M21.1 33l-1.927-.96a5.167 5.167 0 0 0-2.302-.54h-4.19A5.154 5.154 0 0 0 9.043 33m10.551 4.5h-7.536M30.145 33l1.928-.96a5.167 5.167 0 0 1 2.301-.54h4.19c1.364 0 2.674.538 3.639 1.5m-10.55 4.5h7.535M37.681 63c-2.55 3.318-8.038 6-12.058 6s-9.508-2.682-12.058-6M49.74 21c-.77-4.515-2.894-9.483-6.431-13.5C36.695-.012 29.14 0 25.623 0 22.107 0 14.551-.012 7.94 7.5 4.4 11.517 2.277 16.485 1.507 21M18.545 8.952c.132 4.714 10.205 9.133 17.63 12.466M21.69 13.452c-2.04.738-7.557 3.687-11.14 6.816"/><path d="M0 36L0 25.5 10.5507246 25.5"/><path d="M0 48L0 58.5 10.5507246 58.5"/><path d="M51.2463768 36L51.2463768 25.5 40.6956522 25.5"/><path d="M51.2463768 48L51.2463768 58.5 40.6956522 58.5"/></g></svg>