<svg width="89" height="74" xmlns="http://www.w3.org/2000/svg"><g transform="translate(2 2)" fill="none" fill-rule="evenodd"><path d="M21.143 33.158a4.6 4.6 0 0 1-4.596 4.605 4.6 4.6 0 0 1-4.597-4.605 4.6 4.6 0 0 1 4.597-4.605 4.6 4.6 0 0 1 4.596 4.605m20.223 0a4.6 4.6 0 0 1-4.596 4.605 4.6 4.6 0 0 1-4.596-4.605 4.6 4.6 0 0 1 4.596-4.605 4.6 4.6 0 0 1 4.596 4.605" fill="#75C3F8"/><path d="M27.578 51.579h-1.839a5.52 5.52 0 0 1-5.515-5.526V44.21h12.87v1.842a5.52 5.52 0 0 1-5.516 5.526z" stroke="#75C3F8" stroke-width="3" stroke-linecap="round" stroke-linejoin="round"/><path d="M42.286 18.421H11.03c-4.061 0-7.354 3.3-7.354 7.368v7.369A3.682 3.682 0 0 0 0 36.842v5.526a3.682 3.682 0 0 0 3.677 3.685v12.894h42.286M25.739 18.421V1.842M80.894 0H45.963a1.839 1.839 0 0 0-1.839 1.842v20.263c0 1.019.822 1.842 1.839 1.842h3.677v7.916c0 1.71 2.123 2.496 3.235 1.197l7.796-9.113h20.223a1.84 1.84 0 0 0 1.839-1.842V1.842A1.84 1.84 0 0 0 80.894 0zm1.839 70a1.84 1.84 0 0 0 1.838-1.842V40.526a1.84 1.84 0 0 0-1.838-1.842h-23.9a1.839 1.839 0 0 0-1.84 1.842v5.527h-7.9c-1.705 0-2.49 2.127-1.194 3.242l9.095 7.81v11.053c0 1.019.822 1.842 1.838 1.842h23.9z" stroke="#75C3F8" stroke-width="3" stroke-linecap="round" stroke-linejoin="round"/></g></svg>