<svg width="105" height="73" xmlns="http://www.w3.org/2000/svg"><g transform="translate(2 2)" stroke="#7A9CFD" stroke-width="3" fill="none" fill-rule="evenodd"><path d="M102.090259 64.9903288L60.9297176 64.9903288 60.9297176 0 54.4306847 0"/><path d="M60.93 62.824h-8.666"/><path d="M2.43842166 49.8259188L2.43842166 32.4951644 24.1018646 32.4951644 32.7672418 41.1605416 60.9297176 41.1605416"/><path d="M17.603 60.651c0 4.788-3.88 8.67-8.666 8.672-4.783.005-8.665-3.875-8.665-8.663 0-4.785 3.88-8.67 8.665-8.672a8.661 8.661 0 0 1 8.666 8.663zm34.661 0c0 4.788-3.88 8.67-8.665 8.672-4.785.005-8.663-3.875-8.665-8.663 0-4.785 3.88-8.67 8.665-8.672a8.661 8.661 0 0 1 8.665 8.663zm2.467-18.458s-2.517-20.53-17.848-31.362H15.436v21.663m19.498 30.33H17.603m-2.167-51.992h-4.332"/><path d="M65.2624062 34.6615087L93.424882 34.6615087 93.424882 60.6576402"/><path d="M65.2624062 12.9980658L86.9258491 12.9980658 86.9258491 34.6615087"/></g></svg>