<svg width="64" height="73" xmlns="http://www.w3.org/2000/svg"><g transform="translate(2 2)" stroke="#23C5E0" stroke-width="3" fill="none" fill-rule="evenodd"><path d="M25.946 1.606h20.41c.43 0 .841.167 1.146.468l12.023 11.901c.305.302.475.708.475 1.135v50.695c0 1.772-1.453 3.21-3.243 3.21H11.35c-1.79 0-3.243-1.438-3.243-3.21V41.73" stroke-linecap="round" stroke-linejoin="round"/><path stroke-linecap="round" stroke-linejoin="round" d="M59.9998378 16.0504291L45.4052432 16.0504291 45.4052432 1.6056207"/><path d="M17.8376757 64.1997904L17.8376757 46.5450246 24.3241622 46.5450246 24.3241622 64.1997904"/><path d="M30.8106486 64.1997904L30.8106486 56.1748968 37.2971351 56.1748968 37.2971351 64.1997904"/><path d="M43.7836216 64.1997904L43.7836216 48.1500033 50.2701081 48.1500033 50.2701081 64.1997904"/><path d="M30.81 24.075h21.082m-21.081 6.42h21.08m-21.08 6.42h21.08" stroke-linejoin="round"/><path stroke-linejoin="round" d="M8.10794595 33.7051949L8.10794595 16.0504291 -0.000162162162 16.0504291 14.5474054 0.000641991484 29.189027 16.0504291 21.0809189 16.0504291 21.0809189 33.7051949z"/></g></svg>