<svg width="49" height="40" xmlns="http://www.w3.org/2000/svg"><g transform="translate(1 1)" stroke="#225CFF" stroke-width="2" fill="none" fill-rule="evenodd" stroke-linecap="round" stroke-linejoin="round"><path d="M5.704 14.039c-.501-.989-.77-2.034-.77-3.113C4.934 4.641 14.788 0 26.01 0c11.222 0 20 4.715 20 11 0 6.286-8.778 12-20 12-2.126 0-5.503-.489-7-1"/><path d="M.01 16l23-5 1 1-14 13v13c-1.943-.11-8.522-3.021-10-8-.022-.074 0-14 0-14zm23 0l-4 5.96V36c2 .646 4.859 1 7 1 11.222 0 20-4.714 20-11V11m-36 14c-5.746-1.732-9.253-5.2-10-9"/></g></svg>