<svg width="42" height="42" xmlns="http://www.w3.org/2000/svg"><g transform="translate(1 1)" stroke="#225CFF" stroke-width="2" fill="none" fill-rule="evenodd"><path d="M37.789 19.804h-4l-1 1h-3l-5-5h-7v-1a3 3 0 0 1 3-3h3l2-2h5l1.967-2.05"/><path d="M24.7890127 32.8036909L22.7890127 32.8036909 22.7890127 26.8036909 20.7890127 24.8036909 16.7890127 24.8036909 16.7890127 21.7716909 18.7890127 19.8036909 23.7890127 19.8036909 27.7890127 23.7716909 27.7890127 29.8036909z"/><path d="M37.789 19.804c0 9.94-8.059 18-18 18s-18-8.06-18-18c0-9.941 8.059-18 18-18s18 8.059 18 18z"/><path d="M9.79 37.37c-4.22 2.25-7.537 2.901-9.004 1.435-2.891-2.89 2.44-12.962 12.003-22.977m17-13.611c4.218-2.247 7.534-2.898 9-1.433 2.21 2.209-.384 8.615-6 15.982"/><path d="M7.78901275 15.8036909L12.7890127 15.8036909 12.7890127 20.8036909"/></g></svg>