<svg width="42" height="44" xmlns="http://www.w3.org/2000/svg"><g transform="translate(1 1)" stroke="#225CFF" fill="none" fill-rule="evenodd"><path d="M15 16a1 1 0 0 1-1-1v-2c0-1.14 3.305-3 6.002-3h-.004C22.695 10 26 11.86 26 13v2a1 1 0 0 1-1 1H15zm5-6c2.405 0 4-1.919 4-4.285v-1.43C24 1.919 22.405 0 20 0c-2.405 0-4 1.919-4 4.285v1.43C16 8.081 17.595 10 20 10zM1 42a1 1 0 0 1-1-1v-2c0-1.14 3.305-3 6.002-3h-.004C8.695 36 12 37.86 12 39v2a1 1 0 0 1-1 1H1zm5-6c2.405 0 4-1.919 4-4.285v-1.43C10 27.919 8.405 26 6 26c-2.405 0-4 1.919-4 4.285v1.43C2 34.081 3.595 36 6 36zm23 6a1 1 0 0 1-1-1v-2c0-1.14 3.305-3 6.002-3h-.004C36.695 36 40 37.86 40 39v2a1 1 0 0 1-1 1H29zm5-6c2.405 0 4-1.919 4-4.285v-1.43C38 27.919 36.405 26 34 26c-2.405 0-4 1.919-4 4.285v1.43C30 34.081 31.595 36 34 36zM20 19v7m6 4l-6-4m-6 4l6-4" stroke-width="2"/></g></svg>