<svg width="48" height="46" xmlns="http://www.w3.org/2000/svg"><g transform="translate(1 1)" stroke="#225CFF" stroke-width="2" fill="none" fill-rule="evenodd" stroke-linecap="round" stroke-linejoin="round"><path d="M37.062 8.83c3.515 3.516 7.313 5.415 8.485 4.244 1.172-1.172-.728-4.971-4.242-8.485C37.79 1.074 33.991-.825 32.82.346c-1.047 1.048.36 4.195 3.182 7.362"/><path d="M32.487 1.802C33.04 4.367 34.951 8.164 29 14.115l-29 29m44.092-29.709c-2.566-.554-7.141-2.242-13.092 3.709l-25 25"/><path d="M29.04 19.075c1.92-1.92 5.043-1.91 6.976.024 1.933 1.933 1.943 5.056.024 6.976L21.78 40.337c-1.92 1.92-5.044 1.908-6.977-.025-1.933-1.932-1.944-5.055-.024-6.975m.363-8.243L28 38.115M17.97 22.266L31 35.116M21 19.114l13 13"/></g></svg>